<?xml version="1.0" encoding="UTF-8" standalone="no"?>
<!-- Created with Inkscape (http://www.inkscape.org/) -->

<svg
   width="1.9999999in"
   height="2in"
   viewBox="0 0 50.799998 50.8"
   version="1.1"
   id="svg1"
   inkscape:export-filename="circle.svg"
   inkscape:export-xdpi="300"
   inkscape:export-ydpi="300"
   xmlns:inkscape="http://www.inkscape.org/namespaces/inkscape"
   xmlns:sodipodi="http://sodipodi.sourceforge.net/DTD/sodipodi-0.dtd"
   xmlns="http://www.w3.org/2000/svg"
   xmlns:svg="http://www.w3.org/2000/svg">
  <sodipodi:namedview
     id="namedview1"
     pagecolor="#505050"
     bordercolor="#eeeeee"
     borderopacity="1"
     inkscape:showpageshadow="0"
     inkscape:pageopacity="0"
     inkscape:pagecheckerboard="0"
     inkscape:deskcolor="#505050"
     inkscape:document-units="mm" />
  <defs
     id="defs1" />
  <g
     inkscape:label="Layer 1"
     inkscape:groupmode="layer"
     id="layer1">
    <path
       d="M 25.4,0 A 25.4,25.4 0 0 0 21.785234,0.25838216 25.4,25.4 0 0 0 18.243848,1.0288778 25.4,25.4 0 0 0 14.848706,2.2954671 25.4,25.4 0 0 0 11.667505,4.032312 25.4,25.4 0 0 0 8.76639,6.2037557 25.4,25.4 0 0 0 6.2037557,8.76639 25.4,25.4 0 0 0 4.032312,11.667505 25.4,25.4 0 0 0 2.2954671,14.848706 25.4,25.4 0 0 0 1.0288778,18.243848 25.4,25.4 0 0 0 0.25838216,21.785234 25.4,25.4 0 0 0 0,25.4 a 25.4,25.4 0 0 0 0.25838216,3.614766 25.4,25.4 0 0 0 0.77049564,3.541386 25.4,25.4 0 0 0 1.2665893,3.395142 25.4,25.4 0 0 0 1.7368449,3.181201 25.4,25.4 0 0 0 2.1714437,2.901115 25.4,25.4 0 0 0 2.5626343,2.562634 25.4,25.4 0 0 0 2.901115,2.171444 25.4,25.4 0 0 0 3.181201,1.736845 25.4,25.4 0 0 0 3.395142,1.266589 25.4,25.4 0 0 0 3.541386,0.770496 A 25.4,25.4 0 0 0 25.4,50.8 a 25.4,25.4 0 0 0 3.614766,-0.258382 25.4,25.4 0 0 0 3.541386,-0.770496 25.4,25.4 0 0 0 3.395142,-1.266589 25.4,25.4 0 0 0 3.181201,-1.736845 25.4,25.4 0 0 0 2.901115,-2.171444 25.4,25.4 0 0 0 2.562634,-2.562634 25.4,25.4 0 0 0 2.171444,-2.901115 25.4,25.4 0 0 0 1.736845,-3.181201 25.4,25.4 0 0 0 1.266589,-3.395142 25.4,25.4 0 0 0 0.770496,-3.541386 A 25.4,25.4 0 0 0 50.8,25.4 25.4,25.4 0 0 0 50.769511,24.153564 25.4,25.4 0 0 0 50.677527,22.910229 25.4,25.4 0 0 0 50.525081,21.673096 25.4,25.4 0 0 0 50.312174,20.444747 25.4,25.4 0 0 0 50.038806,19.228284 25.4,25.4 0 0 0 49.706527,18.026807 25.4,25.4 0 0 0 49.315336,16.8429 25.4,25.4 0 0 0 48.866785,15.679663 25.4,25.4 0 0 0 48.361389,14.540198 25.4,25.4 0 0 0 47.8007,13.426571 25.4,25.4 0 0 0 47.186267,12.341882 25.4,25.4 0 0 0 46.519124,11.288717 25.4,25.4 0 0 0 45.801339,10.269141 25.4,25.4 0 0 0 45.03446,9.2862549 25.4,25.4 0 0 0 44.22004,8.3426432 25.4,25.4 0 0 0 43.360661,7.4393392 25.4,25.4 0 0 0 42.457357,6.5799601 25.4,25.4 0 0 0 41.513745,5.7655396 25.4,25.4 0 0 0 40.530859,4.9986613 25.4,25.4 0 0 0 39.511283,4.2808757 25.4,25.4 0 0 0 38.458118,3.6137329 25.4,25.4 0 0 0 37.373429,2.9993001 25.4,25.4 0 0 0 36.259802,2.4386108 25.4,25.4 0 0 0 35.120337,1.9332153 25.4,25.4 0 0 0 33.9571,1.4846639 25.4,25.4 0 0 0 32.773193,1.0934733 25.4,25.4 0 0 0 31.571716,0.76119385 25.4,25.4 0 0 0 30.355253,0.48782552 25.4,25.4 0 0 0 29.126904,0.27491862 25.4,25.4 0 0 0 27.889771,0.12247314 25.4,25.4 0 0 0 26.646436,0.0304891 25.4,25.4 0 0 0 25.4,0 Z m 0,6.35 a 19.049999,19.049999 0 0 1 1.068152,0.029972 19.049999,19.049999 0 0 1 1.064534,0.089917 19.049999,19.049999 0 0 1 1.058334,0.1493449 19.049999,19.049999 0 0 1 1.047998,0.208256 19.049999,19.049999 0 0 1 1.034562,0.2671672 19.049999,19.049999 0 0 1 1.018026,0.324528 19.049999,19.049999 0 0 1 0.998388,0.3808553 19.049999,19.049999 0 0 1 0.975651,0.4366658 19.049999,19.049999 0 0 1 0.949296,0.4904094 19.049999,19.049999 0 0 1 0.920358,0.5426025 19.049999,19.049999 0 0 1 0.888318,0.5937622 19.049999,19.049999 0 0 1 0.853694,0.6428547 19.049999,19.049999 0 0 1 0.816488,0.689364 19.049999,19.049999 0 0 1 0.776697,0.733805 19.049999,19.049999 0 0 1 0.733805,0.776697 19.049999,19.049999 0 0 1 0.689364,0.816488 19.049999,19.049999 0 0 1 0.642854,0.853694 19.049999,19.049999 0 0 1 0.593763,0.888318 19.049999,19.049999 0 0 1 0.542602,0.920358 19.049999,19.049999 0 0 1 0.490409,0.949296 19.049999,19.049999 0 0 1 0.436666,0.975651 19.049999,19.049999 0 0 1 0.380856,0.998388 19.049999,19.049999 0 0 1 0.324528,1.018026 19.049999,19.049999 0 0 1 0.267167,1.034562 19.049999,19.049999 0 0 1 0.208256,1.047998 19.049999,19.049999 0 0 1 0.149345,1.058334 19.049999,19.049999 0 0 1 0.08992,1.064534 A 19.049999,19.049999 0 0 1 44.45,25.4 a 19.049999,19.049999 0 0 1 -0.234611,2.98018 19.049999,19.049999 0 0 1 -0.697632,2.906799 19.049999,19.049999 0 0 1 -1.144116,2.761589 19.049999,19.049999 0 0 1 -1.561662,2.548681 19.049999,19.049999 0 0 1 -1.941483,2.273247 19.049999,19.049999 0 0 1 -2.273247,1.941483 19.049999,19.049999 0 0 1 -2.548681,1.561662 19.049999,19.049999 0 0 1 -2.761589,1.144116 A 19.049999,19.049999 0 0 1 28.38018,44.215389 19.049999,19.049999 0 0 1 25.4,44.45 19.049999,19.049999 0 0 1 22.41982,44.215389 19.049999,19.049999 0 0 1 19.513021,43.517757 19.049999,19.049999 0 0 1 16.751432,42.373641 19.049999,19.049999 0 0 1 14.202751,40.811979 19.049999,19.049999 0 0 1 11.929504,38.870496 19.049999,19.049999 0 0 1 9.9880208,36.597249 19.049999,19.049999 0 0 1 8.426359,34.048568 19.049999,19.049999 0 0 1 7.2822428,31.286979 19.049999,19.049999 0 0 1 6.584611,28.38018 19.049999,19.049999 0 0 1 6.35,25.4 19.049999,19.049999 0 0 1 6.584611,22.41982 19.049999,19.049999 0 0 1 7.2822428,19.513021 19.049999,19.049999 0 0 1 8.426359,16.751432 19.049999,19.049999 0 0 1 9.9880208,14.202751 19.049999,19.049999 0 0 1 11.929504,11.929504 19.049999,19.049999 0 0 1 14.202751,9.9880208 19.049999,19.049999 0 0 1 16.751432,8.426359 19.049999,19.049999 0 0 1 19.513021,7.2822428 19.049999,19.049999 0 0 1 22.41982,6.584611 19.049999,19.049999 0 0 1 25.4,6.35 Z"
       style="fill:#ffffff;fill-rule:evenodd;stroke-width:0.267865"
       id="path2" />
  </g>
</svg>
